<?xml version="1.0" encoding="UTF-8"?>
<svg width="192px" height="192px" viewBox="0 0 192 192" version="1.1" xmlns="http://www.w3.org/2000/svg" xmlns:xlink="http://www.w3.org/1999/xlink">
    <title>swap-io-dark-bg-logo-192x192</title>
    <defs>
        <filter x="0.0%" y="-0.0%" width="100.0%" height="100.0%" filterUnits="objectBoundingBox" id="filter-1">
            <feGaussianBlur stdDeviation="0.4" in="SourceGraphic"></feGaussianBlur>
        </filter>
        <filter x="-31.3%" y="-16.5%" width="162.6%" height="133.0%" filterUnits="objectBoundingBox" id="filter-2">
            <feGaussianBlur stdDeviation="9" in="SourceGraphic"></feGaussianBlur>
        </filter>
        <filter x="-10.6%" y="-5.6%" width="121.3%" height="111.2%" filterUnits="objectBoundingBox" id="filter-3">
            <feGaussianBlur stdDeviation="3" in="SourceGraphic"></feGaussianBlur>
        </filter>
        <filter x="0.0%" y="-0.0%" width="100.0%" height="100.0%" filterUnits="objectBoundingBox" id="filter-4">
            <feGaussianBlur stdDeviation="0.4" in="SourceGraphic"></feGaussianBlur>
        </filter>
        <filter x="-31.3%" y="-16.5%" width="162.6%" height="133.0%" filterUnits="objectBoundingBox" id="filter-5">
            <feGaussianBlur stdDeviation="9" in="SourceGraphic"></feGaussianBlur>
        </filter>
        <filter x="-10.6%" y="-5.6%" width="121.3%" height="111.2%" filterUnits="objectBoundingBox" id="filter-6">
            <feGaussianBlur stdDeviation="3" in="SourceGraphic"></feGaussianBlur>
        </filter>
    </defs>
    <g id="logos" stroke="none" stroke-width="1" fill="none" fill-rule="evenodd">
        <g id="swap-io-dark-bg-logo-192x192" transform="translate(-16.4926, -17.6971)">
            <rect id="Rectangle-Copy" fill="#000000" x="16.4926131" y="17.6970958" width="192" height="192"></rect>
            <g id="swap-io-logo-v01-white-bg" transform="translate(112.4926, 113.1971) rotate(-150) translate(-112.4926, -113.1971)translate(30.8468, 29.6266)">
                <path d="M77.9204312,87.3213969 C76.9129675,44.8891439 110.0458,6.55213797 161.433476,7.16000313 C163.806077,7.18806863 163.959806,2.13842452 161.58716,2.14101615 C109.636046,2.2330263 75.7828178,42.8578329 76.2974375,85.6636202 C76.8120571,128.469407 105.998337,163.673987 151.050353,167.141016 C107.567023,162.196945 78.9509725,130.725632 77.9204312,87.3213969 Z" id="purple" fill="#DD5AFF" filter="url(#filter-1)" transform="translate(119.7917, 84.641) rotate(-180) translate(-119.7917, -84.641)"></path>
                <path d="M77.9204312,87.3213969 C76.9129675,44.8891439 110.0458,6.55213797 161.433476,7.16000313 C163.806077,7.18806863 163.959806,2.13842452 161.58716,2.14101615 C109.636046,2.2330263 75.7828178,42.8578329 76.2974375,85.6636202 C76.8120571,128.469407 105.998337,163.673987 151.050353,167.141016 C107.567023,162.196945 78.9509725,130.725632 77.9204312,87.3213969 Z" id="purple-shadow" stroke-opacity="0.383085664" stroke="#CB00FF" stroke-width="0.5" fill="#CB00FF" stroke-linecap="round" filter="url(#filter-2)" transform="translate(119.7917, 84.641) rotate(-180) translate(-119.7917, -84.641)"></path>
                <path d="M77.9204312,87.3213969 C76.9129675,44.8891439 110.0458,6.55213797 161.433476,7.16000313 C163.806077,7.18806863 163.959806,2.13842452 161.58716,2.14101615 C109.636046,2.2330263 75.7828178,42.8578329 76.2974375,85.6636202 C76.8120571,128.469407 105.998337,163.673987 151.050353,167.141016 C107.567023,162.196945 78.9509725,130.725632 77.9204312,87.3213969 Z" id="purple-shadow-copy" stroke-opacity="0.383085664" stroke="#CB00FF" stroke-width="0.5" fill="#CB00FF" stroke-linecap="round" filter="url(#filter-3)" transform="translate(119.7917, 84.641) rotate(-180) translate(-119.7917, -84.641)"></path>
                <path d="M1.62877991,85.1796381 C0.621316255,42.7469904 33.7541488,4.40962771 85.141825,5.01749853 C87.5144253,5.04556429 87.6681546,-0.00412680199 85.2955091,-2.38194338e-14 C33.3443948,0.0904758571 -0.508833402,40.7156605 0.00578623134,83.521846 C0.520405865,126.328032 29.7066853,161.532939 74.7587022,165 C31.2753717,160.055883 2.65932122,128.584277 1.62877991,85.1796381 Z" id="blue" fill="#4695FF" filter="url(#filter-4)" transform="translate(43.5, 82.5) rotate(-360) translate(-43.5, -82.5)"></path>
                <path d="M1.62877991,85.1796381 C0.621316255,42.7469904 33.7541488,4.40962771 85.141825,5.01749853 C87.5144253,5.04556429 87.6681546,-0.00412680199 85.2955091,-2.38194338e-14 C33.3443948,0.0904758571 -0.508833402,40.7156605 0.00578623134,83.521846 C0.520405865,126.328032 29.7066853,161.532939 74.7587022,165 C31.2753717,160.055883 2.65932122,128.584277 1.62877991,85.1796381 Z" id="blue-shadow" stroke-opacity="0.391526442" stroke="#006CFF" stroke-width="0.5" fill="#378CFF" stroke-linecap="round" filter="url(#filter-5)" transform="translate(43.5, 82.5) rotate(-360) translate(-43.5, -82.5)"></path>
                <path d="M1.62877991,85.1796381 C0.621316255,42.7469904 33.7541488,4.40962771 85.141825,5.01749853 C87.5144253,5.04556429 87.6681546,-0.00412680199 85.2955091,-2.38194338e-14 C33.3443948,0.0904758571 -0.508833402,40.7156605 0.00578623134,83.521846 C0.520405865,126.328032 29.7066853,161.532939 74.7587022,165 C31.2753717,160.055883 2.65932122,128.584277 1.62877991,85.1796381 Z" id="blue-shadow-copy" stroke-opacity="0.391526442" stroke="#006CFF" stroke-width="0.5" fill="#378CFF" stroke-linecap="round" filter="url(#filter-6)" transform="translate(43.5, 82.5) rotate(-360) translate(-43.5, -82.5)"></path>
            </g>
            <g id="swap.io" transform="translate(45.4926, 87.6971)" fill="#FFFFFF" fill-rule="nonzero">
                <path d="M0,32.1010101 L1.9858156,29.7676768 C3.02600473,32.2188552 4.68085106,33.4444444 6.95035461,33.4444444 C8.13238771,33.4444444 9.143026,33.0614478 9.9822695,32.2954545 C10.821513,31.5294613 11.2411348,30.6397306 11.2411348,29.6262626 C11.2411348,28.8956229 11.0401891,28.2710438 10.6382979,27.7525253 C10.2364066,27.2340067 9.27895981,26.3619529 7.76595745,25.1363636 C6.37115839,24.0050505 5.43144208,23.1153199 4.94680851,22.4671717 C4.46217494,21.8190236 4.21985816,21.0707071 4.21985816,20.2222222 C4.21985816,19.1144781 4.54491726,18.0892256 5.19503546,17.1464646 C5.84515366,16.2037037 6.71394799,15.4436027 7.80141844,14.8661616 C8.88888889,14.2887205 10.035461,14 11.2411348,14 C12.3049645,14 13.1973995,14.2651515 13.9184397,14.7954545 C14.6394799,15.3257576 15,16.003367 15,16.8282828 C15,17.9124579 14.5390071,18.6548822 13.6170213,19.0555556 C13.4751773,17.9478114 13.0555556,17.0816498 12.358156,16.4570707 C11.6607565,15.8324916 10.7683215,15.520202 9.68085106,15.520202 C8.71158392,15.520202 7.86643026,15.8324916 7.14539007,16.4570707 C6.42434988,17.0816498 6.06382979,17.7946128 6.06382979,18.5959596 C6.06382979,19.5858586 6.678487,20.5639731 7.90780142,21.530303 L9.96453901,23.1919192 C11.9739953,24.7710438 12.9787234,26.3855219 12.9787234,28.0353535 C12.9787234,29.2609428 12.6300236,30.4099327 11.9326241,31.4823232 C11.2352246,32.5547138 10.2895981,33.4090909 9.09574468,34.0454545 C7.90189125,34.6818182 6.643026,35 5.31914894,35 C3.21513002,35 1.44208038,34.03367 0,32.1010101 Z" id="Path"></path>
                <path d="M19,14.4365971 L22.1380753,12.9229535 L22.1380753,13.5874799 L22.1380753,13.882825 C22.1380753,15.6302836 22.1845653,17.2546816 22.2775453,18.7560193 C22.3705253,20.2573569 22.5448629,22.3986089 22.8005579,25.1797753 C23.1259879,28.4285714 23.3700604,30.4098448 23.5327755,31.1235955 C23.6954905,31.8373462 23.9744305,32.1942215 24.3695955,32.1942215 C24.8809856,32.1942215 25.7178057,31.3266453 26.8800558,29.5914928 C28.0423059,27.8563403 29.181311,25.7581594 30.2970711,23.2969502 L29.2161785,14.4365971 L32.3891213,12.9229535 L32.4239888,13.8459069 C32.6099489,19.1128946 32.8075314,22.8908507 33.0167364,25.1797753 C33.0864714,25.7704655 33.1562064,26.3919208 33.2259414,27.0441413 C33.2956764,27.6963617 33.3479777,28.2070626 33.3828452,28.576244 C33.4177127,28.9454254 33.4700139,29.3699839 33.539749,29.8499197 C33.609484,30.3298555 33.655974,30.6436597 33.679219,30.7913323 C33.865179,31.6035313 34.167364,32.0096308 34.5857741,32.0096308 C35.4225941,32.0096308 36.8637843,30.2498662 38.9093445,26.7303371 C40.8386797,23.4815409 41.8033473,20.7372927 41.8033473,18.4975923 C41.8033473,16.7009096 41.2454672,15.3964687 40.1297071,14.5842697 L42.7796374,12 C43.5932125,12.9844837 44,14.2643125 44,15.8394864 C44,17.5623328 43.5467225,19.5189941 42.6401674,21.7094703 C41.7336123,23.8999465 40.3854021,26.3488497 38.595537,29.0561798 C37.4797768,30.7051899 36.4569967,32.071161 35.5271967,33.1540931 C34.5044166,34.3846977 33.6675965,35 33.0167364,35 C32.5053464,35 32.1218038,34.7477261 31.8661088,34.2431782 C31.6104138,33.7386303 31.4128312,32.8833601 31.2733612,31.6773676 L30.5062762,25.0690209 C29.483496,27.2594971 28.3096234,29.3023007 26.9846583,31.1974318 C25.2412831,33.7324773 23.846583,35 22.8005579,35 C22.3124128,35 21.9521153,34.7723381 21.7196653,34.3170144 C21.4872152,33.8616907 21.2780102,33.0187266 21.0920502,31.788122 L19,14.4365971 Z" id="Path"></path>
                <path d="M63.4163934,14 L60.1803279,26.7462687 C59.8360656,28.1393035 59.6639344,29.2305141 59.6639344,30.0199005 C59.6639344,30.7164179 59.8131148,31.3200663 60.1114754,31.8308458 C60.4098361,32.3416252 60.7770492,32.5970149 61.2131148,32.5970149 C61.8786885,32.5970149 62.9803279,31.7728027 64.5180328,30.1243781 L65,30.6119403 L64.6213115,31.0646766 C63.404918,32.4809287 62.4696721,33.473466 61.8155738,34.0422886 C61.1614754,34.6111111 60.5934426,34.8955224 60.1114754,34.8955224 C59.3770492,34.8955224 58.7401639,34.5066335 58.2008197,33.7288557 C57.6614754,32.9510779 57.3918033,32.0514096 57.3918033,31.0298507 C57.3918033,30.2868988 57.6672131,28.6036484 58.2180328,25.9800995 L58.4934426,24.6567164 C57.6442623,26.6533997 56.5081967,28.5688226 55.0852459,30.4029851 C52.6983607,33.4676617 50.4147541,35 48.2344262,35 C46.9262295,35 45.8934426,34.5240464 45.1360656,33.5721393 C44.3786885,32.6202322 44,31.3432836 44,29.7412935 C44,27.5588723 44.6139344,25.2719735 45.8418033,22.880597 C47.0696721,20.4892206 48.5959016,18.5215589 50.4204918,16.9776119 C52.245082,15.433665 54.0180328,14.6616915 55.7393443,14.6616915 C57.552459,14.6616915 58.9065574,15.3349917 59.8016393,16.681592 L60.1803279,15.358209 L63.4163934,14 Z M59.457377,18.4577114 C59.1819672,17.5754561 58.7172131,16.884743 58.0631148,16.3855721 C57.4090164,15.8864013 56.657377,15.6368159 55.8081967,15.6368159 C54.7983607,15.6368159 53.7311475,16.1069652 52.6065574,17.0472637 C51.4819672,17.9875622 50.4491803,19.2935323 49.5081967,20.9651741 C48.7737705,22.2885572 48.1598361,23.7512438 47.6663934,25.3532338 C47.1729508,26.9552239 46.9262295,28.278607 46.9262295,29.3233831 C46.9262295,30.5074627 47.15,31.4361526 47.597541,32.1094527 C48.045082,32.7827529 48.6819672,33.119403 49.5081967,33.119403 C50.5639344,33.119403 51.6655738,32.6202322 52.8131148,31.6218905 C53.9606557,30.6235489 55.0967213,29.1956882 56.2213115,27.3383085 C56.9098361,26.2703151 57.4491803,25.2023217 57.8393443,24.1343284 C58.2295082,23.066335 58.6655738,21.5804312 59.147541,19.6766169 L59.457377,18.4577114 Z" id="Shape"></path>
                <path d="M65,49 L71.8781646,15.4613035 L75.3718354,14 L72.9699367,24.2291242 C74.7652954,20.6887305 76.4575422,18.1403598 78.0466772,16.5840122 C79.6358122,15.0276646 81.3765823,14.2494908 83.2689873,14.2494908 C84.7246835,14.2494908 85.8771097,14.7722335 86.7262658,15.8177189 C87.5754219,16.8632043 88,18.3007468 88,20.1303462 C88,21.9837067 87.6178797,23.8845893 86.8536392,25.8329939 C86.0893987,27.7813985 85.0158228,29.5515954 83.6329114,31.1435845 C81.1339662,34.0899525 78.3802743,35.5631365 75.3718354,35.5631365 C73.4794304,35.5631365 71.9266878,35.0760353 70.7136076,34.101833 L66.9651899,49 L65,49 Z M71.2594937,31.7494908 C72.278481,33.6978955 73.7099156,34.6720978 75.5537975,34.6720978 C78.2225738,34.6720978 80.5516878,32.5454854 82.5411392,28.2922607 C84.1666667,24.8706721 84.9794304,21.9955872 84.9794304,19.6670061 C84.9794304,18.4076714 84.7368143,17.4334691 84.2515823,16.7443992 C83.7663502,16.0553293 83.0748945,15.7107943 82.1772152,15.7107943 C80.721519,15.7107943 79.193038,16.6493551 77.5917722,18.5264766 C76.0632911,20.3798371 74.7652954,22.4470468 73.6977848,24.7281059 C73.2853376,25.6310251 72.9032173,26.5933469 72.5514241,27.6150713 C72.1996308,28.6367957 71.8660338,29.6822811 71.5506329,30.7515275 L71.2594937,31.7494908 Z" id="Shape"></path>
                <path d="M99,32.1301775 C99,32.9191321 98.7275641,33.5946746 98.1826923,34.1568047 C97.6378205,34.7189349 96.991453,35 96.2435897,35 C94.7478632,35 94,34.3096647 94,32.9289941 C94,32.3767258 94.1282051,31.8836292 94.3846154,31.4497041 C94.6410256,31.0157791 94.9775641,30.6656805 95.3942308,30.3994083 C95.8108974,30.1331361 96.2649573,30 96.7564103,30 C97.4401709,30 97.9850427,30.1972387 98.3910256,30.591716 C98.7970085,30.9861933 99,31.4990138 99,32.1301775 Z" id="Path"></path>
                <path d="M115.992308,0 C116.592308,0 117.076923,0.188933873 117.446154,0.566801619 C117.815385,0.944669366 118,1.44062078 118,2.05465587 C118,2.64507422 117.803846,3.14102564 117.411538,3.54251012 C117.019231,3.9439946 116.546154,4.14473684 115.992308,4.14473684 C115.461538,4.14473684 114.988462,3.93218623 114.573077,3.50708502 C114.157692,3.08198381 113.95,2.59784076 113.95,2.05465587 C113.95,1.48785425 114.146154,1.0037112 114.538462,0.602226721 C114.930769,0.20074224 115.415385,0 115.992308,0 Z M114.988462,13.8866397 L111.942308,25.541498 C111.434615,27.4544534 111.180769,28.9895412 111.180769,30.1467611 C111.180769,30.9024966 111.307692,31.5165317 111.561538,31.9888664 C111.815385,32.4612011 112.15,32.6973684 112.565385,32.6973684 C113.280769,32.6973684 114.423077,31.8235493 115.992308,30.0759109 L116.546154,30.5718623 L116.2,30.9615385 C114.884615,32.5438596 113.915385,33.6125169 113.292308,34.1675101 C112.669231,34.7225034 112.092308,35 111.561538,35 C110.846154,35 110.240385,34.6280364 109.744231,33.8841093 C109.248077,33.1401822 109,32.2132254 109,31.1032389 C109,30.3947368 109.138462,29.272942 109.415385,27.7378543 L111.596154,15.3390688 L114.988462,13.8866397 Z" id="Shape"></path>
                <path d="M117,27.5610169 C117,25.4254237 117.592986,23.2957627 118.778958,21.1720339 C119.964929,19.0483051 121.499356,17.3220339 123.382239,15.9932203 C125.265122,14.6644068 127.184685,14 129.140927,14 C131.194981,14 132.851673,14.6584746 134.111004,15.9754237 C135.370335,17.2923729 136,18.9949153 136,21.0830508 C136,23.3610169 135.419241,25.5677966 134.257722,27.7033898 C133.096203,29.8389831 131.567889,31.5889831 129.67278,32.9533898 C127.777671,34.3177966 125.864221,35 123.932432,35 C121.853925,35 120.178893,34.3177966 118.907336,32.9533898 C117.635779,31.5889831 117,29.7915254 117,27.5610169 Z M132.698842,19.7305085 C132.698842,18.3067797 132.33816,17.1322034 131.616795,16.2067797 C130.895431,15.2813559 129.972329,14.8186441 128.84749,14.8186441 C127.820463,14.8186441 126.836229,15.1389831 125.894788,15.779661 C124.953346,16.420339 124.091377,17.3576271 123.30888,18.5915254 C122.428571,20.0152542 121.701094,21.6762712 121.126448,23.5745763 C120.551802,25.4728814 120.264479,27.1576271 120.264479,28.6288136 C120.264479,30.3847458 120.619048,31.7372881 121.328185,32.6864407 C122.037323,33.6355932 123.052124,34.1101695 124.372587,34.1101695 C126.5,34.1101695 128.370656,32.6745763 129.984556,29.8033898 C130.815959,28.3322034 131.47619,26.6830508 131.965251,24.8559322 C132.454311,23.0288136 132.698842,21.320339 132.698842,19.7305085 Z" id="Shape"></path>
            </g>
        </g>
    </g>
</svg>