<?xml version="1.0" encoding="UTF-8"?>
<svg width="700px" height="400px" viewBox="0 0 700 400" version="1.1" xmlns="http://www.w3.org/2000/svg" xmlns:xlink="http://www.w3.org/1999/xlink">
    <title>routhex</title>
    <defs>
        <linearGradient x1="-3.33123206%" y1="8.28847405%" x2="89.9695466%" y2="95.5415411%" id="linearGradient-1">
            <stop stop-color="#FF00F3" offset="0%"></stop>
            <stop stop-color="#00B7FF" offset="100%"></stop>
        </linearGradient>
    </defs>
    <g id="Page-1" stroke="none" stroke-width="1" fill="none" fill-rule="evenodd">
        <g id="routhex">
            <rect id="Rectangle" fill="#000000" x="0" y="0" width="700" height="400" rx="8"></rect>
            <text id="Routhex" font-family="SinhalaSangamMN-Bold, Sinhala Sangam MN" font-size="64" font-weight="bold" fill="#FFFFFF">
                <tspan x="400.96875" y="188">Routhex</tspan>
            </text>
            <text id="The-brain-behind-you" font-family="PTSerif-Regular, PT Serif" font-size="24" font-weight="normal" fill="#FFFFFF">
                <tspan x="404" y="243">The brain behind </tspan>
                <tspan x="404" y="274">your next perfect swap.</tspan>
            </text>
            <path d="M102.339455,60.2335118 C88.9205138,62.1030921 79.1671418,66.7260369 70.7696401,75.1968276 C64.4322626,81.5892476 59.7212033,90.511941 57.9578459,99.4594223 C56.5139439,106.788063 56.7371997,123.37594 58.3934669,131.800015 C63.952172,160.070623 83.0332779,198.795055 102.095326,220.494008 C108.015233,227.232506 106.929811,227.39172 114.938884,218.615848 L119.824191,213.263566 L114.391635,206.27147 C89.0575529,173.660117 74.8272679,138.288726 76.2911359,111.568315 C76.8565356,101.256546 78.6598249,95.4895436 82.9779178,90.1906516 C92.5053114,78.4983862 112.279781,76.37616 138.304503,84.2529943 C159.025541,90.524335 181.813055,102.060246 202.6312,116.817631 L209.153716,121.441529 L215.381281,114.849853 C221.38559,108.493661 221.54441,108.204787 219.83006,106.788063 C210.95156,99.4556088 198.783215,91.0181864 188.993541,85.4065854 C171.350892,75.2940725 145.932408,65.3436343 129.096565,61.9591315 C121.674673,60.4680436 107.309164,59.5413572 102.339455,60.2335118 M263.882231,62.5559481 C256.714451,64.0212948 247.283257,66.9348273 238.971064,70.2497333 C232.217888,72.9425236 210.450145,82.5093673 208.345942,84.2467128 C208.224109,84.3473049 215.474486,89.0322423 217.421949,90.6831073 L224.764375,95.9614672 L230.851271,93.001219 C240.297893,88.407829 254.086204,83.6352034 264.201686,81.4567277 C271.413028,79.9036699 275.872698,79.5451986 284.755735,79.8054717 C294.882108,80.1019732 296.681767,80.4213558 301.52079,82.788601 C307.881764,85.8994834 309.626063,87.4029654 312.626402,92.3643604 C316.091404,98.0941806 317.406435,104.063299 317.417325,114.106216 C317.435476,130.677885 313.600196,145.552537 303.716138,167.246723 C300.276548,174.797501 297.461347,181.590341 297.461347,182.341605 C297.461347,183.093823 299.976151,186.901627 303.050001,190.805722 L308.637747,197.902691 L311.269624,193.824127 C318.901159,181.996481 329.068371,156.908258 333.399169,139.216366 C335.606316,130.202148 335.971148,126.853874 335.999282,115.381839 C336.020156,106.690818 335.585442,100.371808 334.753225,97.2675992 C329.9741,79.4536741 317.429123,66.8194682 299.766508,62.0296817 C294.767757,60.6739739 275.781943,60.1057588 270.688808,61.1592448 C269.69051,61.3651751 266.62755,61.9944066 263.882231,62.5559481 Z M136.101895,124.683978 C134.709723,126.445827 136.041997,128.556612 151.297806,148.750177 C157.636091,157.13993 166.765981,169.244056 171.586853,175.64887 C176.407725,182.052731 181.4455,188.045684 182.782312,188.965697 C186.444251,191.486436 205.273967,191.269065 209.576632,188.656801 C213.833919,186.071232 258.436969,127.788187 258.436969,124.810778 C258.436969,123.754432 256.274292,123.486532 247.77333,123.490299 C232.042876,123.497972 232.786154,122.819165 203.125811,164.250246 C200.407718,168.047563 197.667843,171.154632 197.038916,171.154632 C196.40908,171.154632 193.714583,168.259213 191.05185,164.719309 C169.735464,136.385778 162.093946,126.630783 160.267968,125.421895 C157.160539,123.363546 137.616585,122.766729 136.101895,124.683978 M271.852279,187.586154 L266.663852,194.404736 L271.432994,199.702674 C294.441042,225.255194 312.223453,261.456026 314.875295,288.136395 C317.11239,310.640955 310.859414,322.459067 294.321246,326.98286 C283.086763,330.05656 265.257159,328.047786 247.829598,321.744984 C229.871124,315.250552 199.086334,297.060995 184.827008,284.520221 C180.988098,281.143345 180.086907,280.720997 179.119466,281.84408 C178.487815,282.57723 175.828712,285.612795 173.211356,288.589251 L168.45129,294.002549 L175.554634,299.95832 C193.589342,315.081804 222.415652,331.980483 242.638448,339.285289 C268.376387,348.582661 290.918865,349.496 307.627651,341.919481 C317.540751,337.423336 327.103539,326.732121 330.995086,315.794933 C333.962754,307.454755 334.59985,290.214766 332.37909,278.343265 C327.185218,250.573181 307.898099,213.109119 287.136222,190.464412 C282.206445,185.087343 277.918301,180.706557 277.607014,180.727456 C277.295726,180.749459 274.706504,183.835553 271.852279,187.586154 M166.37846,220.253756 C136.745343,259.089734 130.438822,267.825565 131.575067,268.466237 C132.2167,268.827568 151.663291,269.700336 156.125939,267.92281 C160.588587,266.145283 173.28033,247.401282 181.116062,237.468005 C188.951794,227.533774 195.778337,219.272727 196.285654,219.109699 C196.792971,218.946671 199.447537,221.86211 202.184688,225.587923 C212.763925,239.992558 227.013268,258.552027 230.172428,262.042355 C235.439812,267.862747 237.065222,268.3995 249.413262,268.3995 C258.805431,268.3995 260.369129,268.188803 259.928063,266.981823 C259.643094,266.201957 252.331922,256.01222 243.679401,244.339022 C235.027787,232.664871 224.791602,218.721673 220.932726,213.352231 C217.07385,207.983742 212.723086,202.942263 211.264663,202.150003 C208.164494,200.466332 186.914358,200.186992 183.11175,201.780092 C179.739318,203.193002 177.561213,205.598383 166.37846,220.253756 Z M57.4623271,285.083669 C57.4124122,297.908551 58.5550097,304.01305 62.6825184,312.982459 C69.5862032,327.98391 82.2364546,336.480442 101.427373,339.005948 C118.256863,341.221606 138.286353,336.58436 162.237338,324.926417 C165.980956,323.103552 170.615781,320.946051 172.536144,320.129957 L176.028372,318.646496 L172.989916,316.174379 C171.319128,314.814857 168.221681,312.040518 166.107104,310.008863 L162.262749,306.316418 L150.965645,311.195823 C133.756802,318.628381 122.557713,321.282594 108.692261,321.213951 C96.4358831,321.153888 92.1822258,320.079427 85.7840429,315.427881 C69.6206898,303.678413 70.6934065,270.073637 88.4213648,232.803111 C90.7183579,227.974236 92.7444167,224.498273 92.4549103,223.539171 C92.2691663,222.925194 88.6161328,217.732295 81.4958096,207.960476 C78.9674525,213.129965 76.833847,217.604628 75.0949933,221.384466 C61.6170621,250.67996 57.5394683,265.412557 57.4623271,285.083669 Z" id="Shape" fill="url(#linearGradient-1)"></path>
        </g>
    </g>
</svg>